<svg xmlns="http://www.w3.org/2000/svg" viewBox="0 0 546 514"><path fill="white" d="M321.612 115H348L281.334-6.267 214.667 115h26.388L251.5 96h59.667l10.445 19zm-57.467-42l17.19-31.267L298.52 73h-34.377zM197 133h23v115h-23zM312 133v66.582L242.096 133H236v115h23v-67.136L329.487 248H335V133zM210 266h-99v23h38v92h23v-92h38zM303 266v58h-53v-58h-23v115h23v-34h53v34h23V266zM432 289v-23h-84v115h84v-23h-61v-11h46v-23h-46v-35zM278 514.5c-31.706 0-57.5-25.794-57.5-57.5s25.794-57.5 57.5-57.5 57.5 25.794 57.5 57.5-25.794 57.5-57.5 57.5zm0-92c-19.023 0-34.5 15.477-34.5 34.5s15.477 34.5 34.5 34.5 34.5-15.477 34.5-34.5-15.477-34.5-34.5-34.5zM197.832 452.415c3.578-5.436 5.668-11.935 5.668-18.915 0-19.023-15.477-34.5-34.5-34.5h-58v92H23V23h97.03c-7.235 9.617-11.53 21.565-11.53 34.5 0 31.706 25.794 57.5 57.5 57.5 19.936 0 37.53-10.202 47.848-25.656l-18.102-14.398C189.744 85.14 178.66 92 166 92c-19.023 0-34.5-15.477-34.5-34.5S146.977 23 166 23c12.52 0 23.502 6.705 29.548 16.71l18.278-14.087C203.506 10.188 185.922 0 166 0H0v514h176.5c19.023 0 34.5-15.477 34.5-34.5 0-10.975-5.157-20.762-13.168-27.085zM134 422h35c6.34 0 11.5 5.16 11.5 11.5S175.34 445 169 445h-35v-23zm42.5 69H134v-23h42.5c6.34 0 11.5 5.16 11.5 11.5s-5.16 11.5-11.5 11.5zM332 0v23h38v92h23V23h130v468H422.792l-22.205-35.295L436.262 399h-27.175L387 434.108 364.913 399h-27.175l35.675 56.705L336.738 514h27.175L387 477.303 410.087 514H546V0z"/></svg>
