<?xml version="1.0" encoding="UTF-8" standalone="no"?>
<svg width="148px" height="167px" viewBox="0 0 148 167" version="1.1" xmlns="http://www.w3.org/2000/svg" xmlns:xlink="http://www.w3.org/1999/xlink">
    <!-- Generator: Sketch 39.1 (31720) - http://www.bohemiancoding.com/sketch -->
    <title>Artists</title>
    <desc>Created with Sketch.</desc>
    <defs>
        <rect id="path-1" x="0" y="9" width="148" height="148.210131"></rect>
        <mask id="mask-2" maskContentUnits="userSpaceOnUse" maskUnits="objectBoundingBox" x="0" y="0" width="148" height="148.210131" fill="white">
            <use xlink:href="#path-1"></use>
        </mask>
    </defs>
    <g id="CitB-Web-Pages" stroke="none" stroke-width="1" fill="none" fill-rule="evenodd">
        <g id="Desktop-HD" transform="translate(-356.000000, -1120.000000)">
            <g id="Group" transform="translate(156.000000, 1120.000000)">
                <g id="Artists" transform="translate(200.000000, 0.000000)">
                    <g id="Square">
                        <g id="Group-2">
                            <use id="Rectangle-1" stroke="#000000" mask="url(#mask-2)" stroke-width="20" xlink:href="#path-1"></use>
                            <rect id="Rectangle-2" fill="#FFFFFF" x="50" y="0" width="48.8986784" height="32.6454034"></rect>
                            <rect id="Rectangle-2-Copy" fill="#FFFFFF" x="50" y="134" width="48.8986784" height="32.6454034"></rect>
                        </g>
                    </g>
                    <path d="M34.442,65.708 L29.75,65.708 L24.782,98 L28.324,98 L29.06,92.618 L34.994,92.618 L35.776,98 L39.41,98 L34.442,65.708 Z M32.05,71.504 L34.534,89.306 L29.52,89.306 L32.05,71.504 Z M51.922,82.82 C53.762,82.084 54.774,80.658 54.774,77.76 L54.774,71.78 C54.774,67.778 52.796,65.8 48.794,65.8 L41.94,65.8 L41.94,98 L45.62,98 L45.62,84.476 L48.334,84.476 C50.266,84.476 51.14,85.35 51.14,87.282 L51.14,98 L54.82,98 L54.82,87.144 C54.82,84.66 53.946,83.372 51.922,82.82 L51.922,82.82 Z M51.094,71.596 L51.094,78.496 C51.094,80.336 50.22,81.21 48.38,81.21 L45.62,81.21 L45.62,69.158 L48.656,69.158 C50.312,69.158 51.094,69.94 51.094,71.596 L51.094,71.596 Z M65.446,98 L65.446,69.204 L70.276,69.204 L70.276,65.8 L56.936,65.8 L56.936,69.204 L61.766,69.204 L61.766,98 L65.446,98 Z M76.21,65.8 L72.53,65.8 L72.53,98 L76.21,98 L76.21,65.8 Z M89.412,81.624 L84.95,78.404 C83.892,77.622 83.294,76.932 83.294,75.322 L83.294,71.274 C83.294,69.618 84.076,68.836 85.732,68.836 L86.376,68.836 C88.032,68.836 88.814,69.618 88.814,71.274 L88.814,77.208 L92.402,77.208 L92.402,71.412 C92.402,67.502 90.47,65.524 86.514,65.524 L85.594,65.524 C81.592,65.524 79.614,67.502 79.614,71.504 L79.614,75.368 C79.614,77.99 80.304,79.646 82.696,81.348 L87.204,84.614 C88.262,85.396 88.814,86.086 88.814,87.696 L88.814,92.526 C88.814,94.182 88.032,94.964 86.376,94.964 L85.64,94.964 C83.984,94.964 83.202,94.182 83.202,92.526 L83.202,85.626 L79.614,85.626 L79.614,92.388 C79.614,96.298 81.546,98.276 85.502,98.276 L86.514,98.276 C90.516,98.276 92.494,96.298 92.494,92.296 L92.494,87.604 C92.494,84.844 91.758,83.326 89.412,81.624 L89.412,81.624 Z M102.982,98 L102.982,69.204 L107.812,69.204 L107.812,65.8 L94.472,65.8 L94.472,69.204 L99.302,69.204 L99.302,98 L102.982,98 Z M119.68,81.624 L115.218,78.404 C114.16,77.622 113.562,76.932 113.562,75.322 L113.562,71.274 C113.562,69.618 114.344,68.836 116,68.836 L116.644,68.836 C118.3,68.836 119.082,69.618 119.082,71.274 L119.082,77.208 L122.67,77.208 L122.67,71.412 C122.67,67.502 120.738,65.524 116.782,65.524 L115.862,65.524 C111.86,65.524 109.882,67.502 109.882,71.504 L109.882,75.368 C109.882,77.99 110.572,79.646 112.964,81.348 L117.472,84.614 C118.53,85.396 119.082,86.086 119.082,87.696 L119.082,92.526 C119.082,94.182 118.3,94.964 116.644,94.964 L115.908,94.964 C114.252,94.964 113.47,94.182 113.47,92.526 L113.47,85.626 L109.882,85.626 L109.882,92.388 C109.882,96.298 111.814,98.276 115.77,98.276 L116.782,98.276 C120.784,98.276 122.762,96.298 122.762,92.296 L122.762,87.604 C122.762,84.844 122.026,83.326 119.68,81.624 L119.68,81.624 Z" id="ARTISTS" fill="#000000"></path>
                </g>
            </g>
        </g>
    </g>
</svg>