<?xml version="1.0" encoding="UTF-8" standalone="no"?>
<svg width="148px" height="167px" viewBox="0 0 148 167" version="1.1" xmlns="http://www.w3.org/2000/svg" xmlns:xlink="http://www.w3.org/1999/xlink">
    <!-- Generator: Sketch 39.1 (31720) - http://www.bohemiancoding.com/sketch -->
    <title>Blog</title>
    <desc>Created with Sketch.</desc>
    <defs>
        <rect id="path-1" x="0" y="9" width="148" height="148.210131"></rect>
        <mask id="mask-2" maskContentUnits="userSpaceOnUse" maskUnits="objectBoundingBox" x="0" y="0" width="148" height="148.210131" fill="white">
            <use xlink:href="#path-1"></use>
        </mask>
    </defs>
    <g id="CitB-Web-Pages" stroke="none" stroke-width="1" fill="none" fill-rule="evenodd">
        <g id="Desktop-HD" transform="translate(-156.000000, -1120.000000)">
            <g id="Group" transform="translate(156.000000, 1120.000000)">
                <g id="Blog">
                    <g id="Square">
                        <g id="Group-2">
                            <use id="Rectangle-1" stroke="#000000" mask="url(#mask-2)" stroke-width="20" xlink:href="#path-1"></use>
                            <rect id="Rectangle-2" fill="#FFFFFF" x="50" y="0" width="48.8986784" height="32.6454034"></rect>
                            <rect id="Rectangle-2-Copy" fill="#FFFFFF" x="50" y="134" width="48.8986784" height="32.6454034"></rect>
                        </g>
                    </g>
                    <path d="M54.638,79.532 C56.478,78.842 57.444,77.37 57.444,74.518 L57.444,69.78 C57.444,65.778 55.466,63.8 51.464,63.8 L44.748,63.8 L44.748,96 L51.556,96 C55.558,96 57.536,94.022 57.536,90.02 L57.536,84.592 C57.536,81.74 56.524,80.268 54.638,79.532 L54.638,79.532 Z M53.81,69.55 L53.81,75.208 C53.81,77.048 52.936,77.922 51.096,77.922 L48.382,77.922 L48.382,67.112 L51.372,67.112 C53.028,67.112 53.81,67.894 53.81,69.55 L53.81,69.55 Z M48.382,81.188 L51.188,81.188 C53.028,81.188 53.902,82.062 53.902,83.902 L53.902,90.25 C53.902,91.906 53.12,92.688 51.464,92.688 L48.382,92.688 L48.382,81.188 Z M60.894,63.8 L60.894,96 L70.646,96 L70.646,92.596 L64.574,92.596 L64.574,63.8 L60.894,63.8 Z M86.608,90.296 L86.608,69.504 C86.608,65.502 84.63,63.524 80.628,63.524 L79.248,63.524 C75.246,63.524 73.268,65.502 73.268,69.504 L73.268,90.296 C73.268,94.298 75.246,96.276 79.248,96.276 L80.628,96.276 C84.63,96.276 86.608,94.298 86.608,90.296 L86.608,90.296 Z M82.928,69.32 L82.928,90.48 C82.928,92.136 82.146,92.918 80.49,92.918 L79.386,92.918 C77.73,92.918 76.948,92.136 76.948,90.48 L76.948,69.32 C76.948,67.664 77.73,66.882 79.386,66.882 L80.49,66.882 C82.146,66.882 82.928,67.664 82.928,69.32 L82.928,69.32 Z M99.672,82.246 L99.672,90.48 C99.672,92.136 98.89,92.918 97.234,92.918 L96.038,92.918 C94.382,92.918 93.6,92.136 93.6,90.48 L93.6,69.32 C93.6,67.664 94.382,66.882 96.038,66.882 L97.142,66.882 C98.798,66.882 99.58,67.664 99.58,69.32 L99.58,73.828 L103.168,73.828 L103.168,69.412 C103.168,65.502 101.236,63.524 97.28,63.524 L95.9,63.524 C91.898,63.524 89.92,65.502 89.92,69.504 L89.92,90.296 C89.92,94.298 91.898,96.276 95.9,96.276 L97.28,96.276 C101.282,96.276 103.26,94.298 103.26,90.296 L103.26,78.888 L96.682,78.888 L96.682,82.246 L99.672,82.246 Z" id="BLOG" fill="#000000"></path>
                </g>
            </g>
        </g>
    </g>
</svg>