<?xml version="1.0" encoding="UTF-8" standalone="no"?>
<svg width="148px" height="167px" viewBox="0 0 148 167" version="1.1" xmlns="http://www.w3.org/2000/svg" xmlns:xlink="http://www.w3.org/1999/xlink">
    <!-- Generator: Sketch 39.1 (31720) - http://www.bohemiancoding.com/sketch -->
    <title>Releases</title>
    <desc>Created with Sketch.</desc>
    <defs>
        <rect id="path-1" x="0" y="9" width="148" height="148.210131"></rect>
        <mask id="mask-2" maskContentUnits="userSpaceOnUse" maskUnits="objectBoundingBox" x="0" y="0" width="148" height="148.210131" fill="white">
            <use xlink:href="#path-1"></use>
        </mask>
    </defs>
    <g id="CitB-Web-Pages" stroke="none" stroke-width="1" fill="none" fill-rule="evenodd">
        <g id="Desktop-HD" transform="translate(-556.000000, -1120.000000)">
            <g id="Group" transform="translate(156.000000, 1120.000000)">
                <g id="Releases" transform="translate(400.000000, 0.000000)">
                    <g id="Square">
                        <g id="Group-2">
                            <use id="Rectangle-1" stroke="#000000" mask="url(#mask-2)" stroke-width="20" xlink:href="#path-1"></use>
                            <rect id="Rectangle-2" fill="#FFFFFF" x="50" y="0" width="48.8986784" height="32.6454034"></rect>
                            <rect id="Rectangle-2-Copy" fill="#FFFFFF" x="50" y="134" width="48.8986784" height="32.6454034"></rect>
                        </g>
                    </g>
                    <path d="M26.73,80.82 C28.57,80.084 29.582,78.658 29.582,75.76 L29.582,69.78 C29.582,65.778 27.604,63.8 23.602,63.8 L16.748,63.8 L16.748,96 L20.428,96 L20.428,82.476 L23.142,82.476 C25.074,82.476 25.948,83.35 25.948,85.282 L25.948,96 L29.628,96 L29.628,85.144 C29.628,82.66 28.754,81.372 26.73,80.82 L26.73,80.82 Z M25.902,69.596 L25.902,76.496 C25.902,78.336 25.028,79.21 23.188,79.21 L20.428,79.21 L20.428,67.158 L23.464,67.158 C25.12,67.158 25.902,67.94 25.902,69.596 L25.902,69.596 Z M33.032,63.8 L33.032,96 L43.244,96 L43.244,92.596 L36.712,92.596 L36.712,81.234 L42.922,81.234 L42.922,77.876 L36.712,77.876 L36.712,67.204 L43.152,67.204 L43.152,63.8 L33.032,63.8 Z M46.28,63.8 L46.28,96 L56.032,96 L56.032,92.596 L49.96,92.596 L49.96,63.8 L46.28,63.8 Z M58.746,63.8 L58.746,96 L68.958,96 L68.958,92.596 L62.426,92.596 L62.426,81.234 L68.636,81.234 L68.636,77.876 L62.426,77.876 L62.426,67.204 L68.866,67.204 L68.866,63.8 L58.746,63.8 Z M80.688,63.708 L75.996,63.708 L71.028,96 L74.57,96 L75.306,90.618 L81.24,90.618 L82.022,96 L85.656,96 L80.688,63.708 Z M78.296,69.504 L80.78,87.306 L75.766,87.306 L78.296,69.504 Z M97.846,79.624 L93.384,76.404 C92.326,75.622 91.728,74.932 91.728,73.322 L91.728,69.274 C91.728,67.618 92.51,66.836 94.166,66.836 L94.81,66.836 C96.466,66.836 97.248,67.618 97.248,69.274 L97.248,75.208 L100.836,75.208 L100.836,69.412 C100.836,65.502 98.904,63.524 94.948,63.524 L94.028,63.524 C90.026,63.524 88.048,65.502 88.048,69.504 L88.048,73.368 C88.048,75.99 88.738,77.646 91.13,79.348 L95.638,82.614 C96.696,83.396 97.248,84.086 97.248,85.696 L97.248,90.526 C97.248,92.182 96.466,92.964 94.81,92.964 L94.074,92.964 C92.418,92.964 91.636,92.182 91.636,90.526 L91.636,83.626 L88.048,83.626 L88.048,90.388 C88.048,94.298 89.98,96.276 93.936,96.276 L94.948,96.276 C98.95,96.276 100.928,94.298 100.928,90.296 L100.928,85.604 C100.928,82.844 100.192,81.326 97.846,79.624 L97.846,79.624 Z M104.194,63.8 L104.194,96 L114.406,96 L114.406,92.596 L107.874,92.596 L107.874,81.234 L114.084,81.234 L114.084,77.876 L107.874,77.876 L107.874,67.204 L114.314,67.204 L114.314,63.8 L104.194,63.8 Z M127.102,79.624 L122.64,76.404 C121.582,75.622 120.984,74.932 120.984,73.322 L120.984,69.274 C120.984,67.618 121.766,66.836 123.422,66.836 L124.066,66.836 C125.722,66.836 126.504,67.618 126.504,69.274 L126.504,75.208 L130.092,75.208 L130.092,69.412 C130.092,65.502 128.16,63.524 124.204,63.524 L123.284,63.524 C119.282,63.524 117.304,65.502 117.304,69.504 L117.304,73.368 C117.304,75.99 117.994,77.646 120.386,79.348 L124.894,82.614 C125.952,83.396 126.504,84.086 126.504,85.696 L126.504,90.526 C126.504,92.182 125.722,92.964 124.066,92.964 L123.33,92.964 C121.674,92.964 120.892,92.182 120.892,90.526 L120.892,83.626 L117.304,83.626 L117.304,90.388 C117.304,94.298 119.236,96.276 123.192,96.276 L124.204,96.276 C128.206,96.276 130.184,94.298 130.184,90.296 L130.184,85.604 C130.184,82.844 129.448,81.326 127.102,79.624 L127.102,79.624 Z" id="RELEASES" fill="#000000"></path>
                </g>
            </g>
        </g>
    </g>
</svg>