<?xml version="1.0" encoding="UTF-8" standalone="no"?>
<svg width="149px" height="61px" viewBox="0 0 149 61" version="1.1" xmlns="http://www.w3.org/2000/svg" xmlns:xlink="http://www.w3.org/1999/xlink">
    <!-- Generator: Sketch 44.1 (41455) - http://www.bohemiancoding.com/sketch -->
    <title>Artists</title>
    <desc>Created with Sketch.</desc>
    <defs></defs>
    <g id="Menu" stroke="none" stroke-width="1" fill="none" fill-rule="evenodd">
        <g id="Artists">
            <rect id="Rectangle" stroke="#000000" stroke-width="3" x="1.5" y="9.29998779" width="55" height="29.2000008"></rect>
            <rect id="Rectangle" stroke="#000000" stroke-width="3" x="63.5" y="9.02999878" width="84" height="29.7400017"></rect>
            <polygon id="Rectangle-2" fill="#FFFFFF" points="33 0 116 0 116 61 24.1914317 61"></polygon>
            <path d="M35.162,7.708 L40.13,40 L36.496,40 L35.714,34.618 L29.78,34.618 L29.044,40 L25.502,40 L30.47,7.708 L35.162,7.708 Z M32.77,13.504 L30.24,31.306 L35.254,31.306 L32.77,13.504 Z M52.642,24.82 C54.666,25.372 55.54,26.66 55.54,29.144 L55.54,40 L51.86,40 L51.86,29.282 C51.86,27.35 50.986,26.476 49.054,26.476 L46.34,26.476 L46.34,40 L42.66,40 L42.66,7.8 L49.514,7.8 C53.516,7.8 55.494,9.778 55.494,13.78 L55.494,19.76 C55.494,22.658 54.482,24.084 52.642,24.82 Z M51.814,13.596 C51.814,11.94 51.032,11.158 49.376,11.158 L46.34,11.158 L46.34,23.21 L49.1,23.21 C50.94,23.21 51.814,22.336 51.814,20.496 L51.814,13.596 Z M66.166,40 L66.166,11.204 L70.996,11.204 L70.996,7.8 L57.656,7.8 L57.656,11.204 L62.486,11.204 L62.486,40 L66.166,40 Z M76.93,7.8 L73.25,7.8 L73.25,40 L76.93,40 L76.93,7.8 Z M90.132,23.624 L85.67,20.404 C84.612,19.622 84.014,18.932 84.014,17.322 L84.014,13.274 C84.014,11.618 84.796,10.836 86.452,10.836 L87.096,10.836 C88.752,10.836 89.534,11.618 89.534,13.274 L89.534,19.208 L93.122,19.208 L93.122,13.412 C93.122,9.502 91.19,7.524 87.234,7.524 L86.314,7.524 C82.312,7.524 80.334,9.502 80.334,13.504 L80.334,17.368 C80.334,19.99 81.024,21.646 83.416,23.348 L87.924,26.614 C88.982,27.396 89.534,28.086 89.534,29.696 L89.534,34.526 C89.534,36.182 88.752,36.964 87.096,36.964 L86.36,36.964 C84.704,36.964 83.922,36.182 83.922,34.526 L83.922,27.626 L80.334,27.626 L80.334,34.388 C80.334,38.298 82.266,40.276 86.222,40.276 L87.234,40.276 C91.236,40.276 93.214,38.298 93.214,34.296 L93.214,29.604 C93.214,26.844 92.478,25.326 90.132,23.624 Z M103.702,40 L103.702,11.204 L108.532,11.204 L108.532,7.8 L95.192,7.8 L95.192,11.204 L100.022,11.204 L100.022,40 L103.702,40 Z M120.4,23.624 L115.938,20.404 C114.88,19.622 114.282,18.932 114.282,17.322 L114.282,13.274 C114.282,11.618 115.064,10.836 116.72,10.836 L117.364,10.836 C119.02,10.836 119.802,11.618 119.802,13.274 L119.802,19.208 L123.39,19.208 L123.39,13.412 C123.39,9.502 121.458,7.524 117.502,7.524 L116.582,7.524 C112.58,7.524 110.602,9.502 110.602,13.504 L110.602,17.368 C110.602,19.99 111.292,21.646 113.684,23.348 L118.192,26.614 C119.25,27.396 119.802,28.086 119.802,29.696 L119.802,34.526 C119.802,36.182 119.02,36.964 117.364,36.964 L116.628,36.964 C114.972,36.964 114.19,36.182 114.19,34.526 L114.19,27.626 L110.602,27.626 L110.602,34.388 C110.602,38.298 112.534,40.276 116.49,40.276 L117.502,40.276 C121.504,40.276 123.482,38.298 123.482,34.296 L123.482,29.604 C123.482,26.844 122.746,25.326 120.4,23.624 Z" id="ARTISTS" fill="#000000"></path>
        </g>
    </g>
</svg>