<?xml version="1.0" encoding="UTF-8" standalone="no"?>
<svg width="149px" height="61px" viewBox="0 0 149 61" version="1.1" xmlns="http://www.w3.org/2000/svg" xmlns:xlink="http://www.w3.org/1999/xlink">
    <!-- Generator: Sketch 44.1 (41455) - http://www.bohemiancoding.com/sketch -->
    <title>Blog</title>
    <desc>Created with Sketch.</desc>
    <defs></defs>
    <g id="Menu" stroke="none" stroke-width="1" fill="none" fill-rule="evenodd">
        <g id="Blog">
            <rect id="Rectangle" stroke="#000000" stroke-width="3" x="1.5" y="9.29998779" width="55" height="29.2000008"></rect>
            <rect id="Rectangle" stroke="#000000" stroke-width="3" x="63.5" y="9.02999878" width="84" height="29.7400017"></rect>
            <rect id="Rectangle-2" fill="#FFFFFF" x="51" y="0" width="48" height="61"></rect>
            <path d="M55.814,23.532 C57.7,24.268 58.712,25.74 58.712,28.592 L58.712,34.02 C58.712,38.022 56.734,40 52.732,40 L45.924,40 L45.924,7.8 L52.64,7.8 C56.642,7.8 58.62,9.778 58.62,13.78 L58.62,18.518 C58.62,21.37 57.654,22.842 55.814,23.532 Z M54.986,13.55 C54.986,11.894 54.204,11.112 52.548,11.112 L49.558,11.112 L49.558,21.922 L52.272,21.922 C54.112,21.922 54.986,21.048 54.986,19.208 L54.986,13.55 Z M49.558,25.188 L49.558,36.688 L52.64,36.688 C54.296,36.688 55.078,35.906 55.078,34.25 L55.078,27.902 C55.078,26.062 54.204,25.188 52.364,25.188 L49.558,25.188 Z M62.07,7.8 L62.07,40 L71.822,40 L71.822,36.596 L65.75,36.596 L65.75,7.8 L62.07,7.8 Z M87.784,34.296 C87.784,38.298 85.806,40.276 81.804,40.276 L80.424,40.276 C76.422,40.276 74.444,38.298 74.444,34.296 L74.444,13.504 C74.444,9.502 76.422,7.524 80.424,7.524 L81.804,7.524 C85.806,7.524 87.784,9.502 87.784,13.504 L87.784,34.296 Z M84.104,13.32 C84.104,11.664 83.322,10.882 81.666,10.882 L80.562,10.882 C78.906,10.882 78.124,11.664 78.124,13.32 L78.124,34.48 C78.124,36.136 78.906,36.918 80.562,36.918 L81.666,36.918 C83.322,36.918 84.104,36.136 84.104,34.48 L84.104,13.32 Z M100.848,26.246 L100.848,34.48 C100.848,36.136 100.066,36.918 98.41,36.918 L97.214,36.918 C95.558,36.918 94.776,36.136 94.776,34.48 L94.776,13.32 C94.776,11.664 95.558,10.882 97.214,10.882 L98.318,10.882 C99.974,10.882 100.756,11.664 100.756,13.32 L100.756,17.828 L104.344,17.828 L104.344,13.412 C104.344,9.502 102.412,7.524 98.456,7.524 L97.076,7.524 C93.074,7.524 91.096,9.502 91.096,13.504 L91.096,34.296 C91.096,38.298 93.074,40.276 97.076,40.276 L98.456,40.276 C102.458,40.276 104.436,38.298 104.436,34.296 L104.436,22.888 L97.858,22.888 L97.858,26.246 L100.848,26.246 Z" id="BLOG" fill="#000000"></path>
        </g>
    </g>
</svg>