<?xml version="1.0" encoding="UTF-8" standalone="no"?>
<svg width="149px" height="60px" viewBox="0 0 149 60" version="1.1" xmlns="http://www.w3.org/2000/svg" xmlns:xlink="http://www.w3.org/1999/xlink">
    <!-- Generator: Sketch 44.1 (41455) - http://www.bohemiancoding.com/sketch -->
    <title>Contact</title>
    <desc>Created with Sketch.</desc>
    <defs></defs>
    <g id="Menu" stroke="none" stroke-width="1" fill="none" fill-rule="evenodd">
        <g id="Contact">
            <rect id="Rectangle" stroke="#000000" stroke-width="3" x="1.5" y="9.29998779" width="55" height="29.2000008"></rect>
            <rect id="Rectangle" stroke="#000000" stroke-width="3" x="63.5" y="9.5" width="84" height="28.5"></rect>
            <polygon id="Rectangle-2" fill="#FFFFFF" points="25 0 116.157456 0.626869963 126.194393 59.8581759 31.4831676 59.8581759"></polygon>
            <path d="M30.6843146,27.4404372 L30.6843146,34.1370664 C30.6843146,35.755044 29.9202697,36.5190889 28.3022921,36.5190889 L27.3135281,36.5190889 C25.6955506,36.5190889 24.9315056,35.755044 24.9315056,34.1370664 L24.9315056,13.4629091 C24.9315056,11.8449316 25.6955506,11.0808867 27.3135281,11.0808867 L28.2124045,11.0808867 C29.830382,11.0808867 30.594427,11.8449316 30.594427,13.4629091 L30.594427,19.2157181 L34.1000449,19.2157181 L34.1000449,13.5527968 C34.1000449,9.68762824 32.2124045,7.79998779 28.347236,7.79998779 L27.1786966,7.79998779 C23.2685843,7.79998779 21.336,9.73257206 21.336,13.6426844 L21.336,33.9572912 C21.336,37.8674035 23.2685843,39.7999878 27.1786966,39.7999878 L28.347236,39.7999878 C32.2573483,39.7999878 34.1899326,37.8674035 34.1899326,33.9572912 L34.1899326,27.4404372 L30.6843146,27.4404372 Z M50.2798202,33.9572912 C50.2798202,37.8674035 48.347236,39.7999878 44.4371236,39.7999878 L43.088809,39.7999878 C39.1786966,39.7999878 37.2461124,37.8674035 37.2461124,33.9572912 L37.2461124,13.6426844 C37.2461124,9.73257206 39.1786966,7.79998779 43.088809,7.79998779 L44.4371236,7.79998779 C48.347236,7.79998779 50.2798202,9.73257206 50.2798202,13.6426844 L50.2798202,33.9572912 Z M46.6843146,13.4629091 C46.6843146,11.8449316 45.9202697,11.0808867 44.3022921,11.0808867 L43.2236404,11.0808867 C41.6056629,11.0808867 40.841618,11.8449316 40.841618,13.4629091 L40.841618,34.1370664 C40.841618,35.755044 41.6056629,36.5190889 43.2236404,36.5190889 L44.3022921,36.5190889 C45.9202697,36.5190889 46.6843146,35.755044 46.6843146,34.1370664 L46.6843146,13.4629091 Z M63.7629663,30.8561676 L58.5494831,8.06965071 L53.6056629,8.06965071 L53.6056629,39.5303249 L57.0213933,39.5303249 L57.0213933,14.9460552 L62.6843146,39.5303249 L67.1786966,39.5303249 L67.1786966,8.06965071 L63.7629663,8.06965071 L63.7629663,30.8561676 Z M77.6506067,39.5303249 L77.6506067,11.3954934 L82.3697079,11.3954934 L82.3697079,8.06965071 L69.336,8.06965071 L69.336,11.3954934 L74.0551011,11.3954934 L74.0551011,39.5303249 L77.6506067,39.5303249 Z M93.0213933,7.97976307 L97.8753258,39.5303249 L94.324764,39.5303249 L93.5607191,34.2718979 L87.7629663,34.2718979 L87.0438652,39.5303249 L83.583191,39.5303249 L88.4371236,7.97976307 L93.0213933,7.97976307 Z M90.6843146,13.6426844 L88.2124045,31.0359428 L93.1112809,31.0359428 L90.6843146,13.6426844 Z M109.605663,27.4404372 L109.605663,34.1370664 C109.605663,35.755044 108.841618,36.5190889 107.22364,36.5190889 L106.234876,36.5190889 C104.616899,36.5190889 103.852854,35.755044 103.852854,34.1370664 L103.852854,13.4629091 C103.852854,11.8449316 104.616899,11.0808867 106.234876,11.0808867 L107.133753,11.0808867 C108.75173,11.0808867 109.515775,11.8449316 109.515775,13.4629091 L109.515775,19.2157181 L113.021393,19.2157181 L113.021393,13.5527968 C113.021393,9.68762824 111.133753,7.79998779 107.268584,7.79998779 L106.100045,7.79998779 C102.189933,7.79998779 100.257348,9.73257206 100.257348,13.6426844 L100.257348,33.9572912 C100.257348,37.8674035 102.189933,39.7999878 106.100045,39.7999878 L107.268584,39.7999878 C111.178697,39.7999878 113.111281,37.8674035 113.111281,33.9572912 L113.111281,27.4404372 L109.605663,27.4404372 Z M123.313528,39.5303249 L123.313528,11.3954934 L128.032629,11.3954934 L128.032629,8.06965071 L114.998921,8.06965071 L114.998921,11.3954934 L119.718022,11.3954934 L119.718022,39.5303249 L123.313528,39.5303249 Z" id="CONTACT" fill="#000000"></path>
        </g>
    </g>
</svg>