<?xml version="1.0" encoding="UTF-8" standalone="no"?>
<svg width="149px" height="61px" viewBox="0 0 149 61" version="1.1" xmlns="http://www.w3.org/2000/svg" xmlns:xlink="http://www.w3.org/1999/xlink">
    <!-- Generator: Sketch 44.1 (41455) - http://www.bohemiancoding.com/sketch -->
    <title>Releases</title>
    <desc>Created with Sketch.</desc>
    <defs></defs>
    <g id="Menu" stroke="none" stroke-width="1" fill="none" fill-rule="evenodd">
        <g id="Releases">
            <rect id="Rectangle" stroke="#000000" stroke-width="3" x="1.5" y="9.29998779" width="55" height="29.2000008"></rect>
            <rect id="Rectangle" stroke="#000000" stroke-width="3" x="63.5" y="9.02999878" width="84" height="29.7400017"></rect>
            <polygon id="Rectangle-2" fill="#FFFFFF" points="26.3620543 0 124 0 124 61 16 61"></polygon>
            <path d="M28.028,24.82 C30.052,25.372 30.926,26.66 30.926,29.144 L30.926,40 L27.246,40 L27.246,29.282 C27.246,27.35 26.372,26.476 24.44,26.476 L21.726,26.476 L21.726,40 L18.046,40 L18.046,7.8 L24.9,7.8 C28.902,7.8 30.88,9.778 30.88,13.78 L30.88,19.76 C30.88,22.658 29.868,24.084 28.028,24.82 Z M27.2,13.596 C27.2,11.94 26.418,11.158 24.762,11.158 L21.726,11.158 L21.726,23.21 L24.486,23.21 C26.326,23.21 27.2,22.336 27.2,20.496 L27.2,13.596 Z M34.33,7.8 L34.33,40 L44.542,40 L44.542,36.596 L38.01,36.596 L38.01,25.234 L44.22,25.234 L44.22,21.876 L38.01,21.876 L38.01,11.204 L44.45,11.204 L44.45,7.8 L34.33,7.8 Z M47.578,7.8 L47.578,40 L57.33,40 L57.33,36.596 L51.258,36.596 L51.258,7.8 L47.578,7.8 Z M60.044,7.8 L60.044,40 L70.256,40 L70.256,36.596 L63.724,36.596 L63.724,25.234 L69.934,25.234 L69.934,21.876 L63.724,21.876 L63.724,11.204 L70.164,11.204 L70.164,7.8 L60.044,7.8 Z M81.986,7.708 L86.954,40 L83.32,40 L82.538,34.618 L76.604,34.618 L75.868,40 L72.326,40 L77.294,7.708 L81.986,7.708 Z M79.594,13.504 L77.064,31.306 L82.078,31.306 L79.594,13.504 Z M99.144,23.624 L94.682,20.404 C93.624,19.622 93.026,18.932 93.026,17.322 L93.026,13.274 C93.026,11.618 93.808,10.836 95.464,10.836 L96.108,10.836 C97.764,10.836 98.546,11.618 98.546,13.274 L98.546,19.208 L102.134,19.208 L102.134,13.412 C102.134,9.502 100.202,7.524 96.246,7.524 L95.326,7.524 C91.324,7.524 89.346,9.502 89.346,13.504 L89.346,17.368 C89.346,19.99 90.036,21.646 92.428,23.348 L96.936,26.614 C97.994,27.396 98.546,28.086 98.546,29.696 L98.546,34.526 C98.546,36.182 97.764,36.964 96.108,36.964 L95.372,36.964 C93.716,36.964 92.934,36.182 92.934,34.526 L92.934,27.626 L89.346,27.626 L89.346,34.388 C89.346,38.298 91.278,40.276 95.234,40.276 L96.246,40.276 C100.248,40.276 102.226,38.298 102.226,34.296 L102.226,29.604 C102.226,26.844 101.49,25.326 99.144,23.624 Z M105.492,7.8 L105.492,40 L115.704,40 L115.704,36.596 L109.172,36.596 L109.172,25.234 L115.382,25.234 L115.382,21.876 L109.172,21.876 L109.172,11.204 L115.612,11.204 L115.612,7.8 L105.492,7.8 Z M128.4,23.624 L123.938,20.404 C122.88,19.622 122.282,18.932 122.282,17.322 L122.282,13.274 C122.282,11.618 123.064,10.836 124.72,10.836 L125.364,10.836 C127.02,10.836 127.802,11.618 127.802,13.274 L127.802,19.208 L131.39,19.208 L131.39,13.412 C131.39,9.502 129.458,7.524 125.502,7.524 L124.582,7.524 C120.58,7.524 118.602,9.502 118.602,13.504 L118.602,17.368 C118.602,19.99 119.292,21.646 121.684,23.348 L126.192,26.614 C127.25,27.396 127.802,28.086 127.802,29.696 L127.802,34.526 C127.802,36.182 127.02,36.964 125.364,36.964 L124.628,36.964 C122.972,36.964 122.19,36.182 122.19,34.526 L122.19,27.626 L118.602,27.626 L118.602,34.388 C118.602,38.298 120.534,40.276 124.49,40.276 L125.502,40.276 C129.504,40.276 131.482,38.298 131.482,34.296 L131.482,29.604 C131.482,26.844 130.746,25.326 128.4,23.624 Z" id="RELEASES" fill="#000000"></path>
        </g>
    </g>
</svg>