<?xml version="1.0" encoding="UTF-8" standalone="no"?>
<svg width="149px" height="61px" viewBox="0 0 149 61" version="1.1" xmlns="http://www.w3.org/2000/svg" xmlns:xlink="http://www.w3.org/1999/xlink">
    <!-- Generator: Sketch 44.1 (41455) - http://www.bohemiancoding.com/sketch -->
    <title>Shop</title>
    <desc>Created with Sketch.</desc>
    <defs></defs>
    <g id="Menu" stroke="none" stroke-width="1" fill="none" fill-rule="evenodd">
        <g id="Shop">
            <rect id="Rectangle" stroke="#000000" stroke-width="3" x="1.5" y="9.29998779" width="55" height="29.2000008"></rect>
            <rect id="Rectangle" stroke="#000000" stroke-width="3" x="63.5" y="9.02999878" width="84" height="29.7400017"></rect>
            <polygon id="Rectangle-2" fill="#FFFFFF" points="48 0 94 0 94 61 50.9822571 59.8581759"></polygon>
            <path d="M53.594,23.624 L49.132,20.404 C48.074,19.622 47.476,18.932 47.476,17.322 L47.476,13.274 C47.476,11.618 48.258,10.836 49.914,10.836 L50.558,10.836 C52.214,10.836 52.996,11.618 52.996,13.274 L52.996,19.208 L56.584,19.208 L56.584,13.412 C56.584,9.502 54.652,7.524 50.696,7.524 L49.776,7.524 C45.774,7.524 43.796,9.502 43.796,13.504 L43.796,17.368 C43.796,19.99 44.486,21.646 46.878,23.348 L51.386,26.614 C52.444,27.396 52.996,28.086 52.996,29.696 L52.996,34.526 C52.996,36.182 52.214,36.964 50.558,36.964 L49.822,36.964 C48.166,36.964 47.384,36.182 47.384,34.526 L47.384,27.626 L43.796,27.626 L43.796,34.388 C43.796,38.298 45.728,40.276 49.684,40.276 L50.696,40.276 C54.698,40.276 56.676,38.298 56.676,34.296 L56.676,29.604 C56.676,26.844 55.94,25.326 53.594,23.624 Z M63.622,21.83 L63.622,7.8 L59.942,7.8 L59.942,40 L63.622,40 L63.622,25.28 L69.602,25.28 L69.602,40 L73.282,40 L73.282,7.8 L69.602,7.8 L69.602,21.83 L63.622,21.83 Z M90.026,34.296 C90.026,38.298 88.048,40.276 84.046,40.276 L82.666,40.276 C78.664,40.276 76.686,38.298 76.686,34.296 L76.686,13.504 C76.686,9.502 78.664,7.524 82.666,7.524 L84.046,7.524 C88.048,7.524 90.026,9.502 90.026,13.504 L90.026,34.296 Z M86.346,13.32 C86.346,11.664 85.564,10.882 83.908,10.882 L82.804,10.882 C81.148,10.882 80.366,11.664 80.366,13.32 L80.366,34.48 C80.366,36.136 81.148,36.918 82.804,36.918 L83.908,36.918 C85.564,36.918 86.346,36.136 86.346,34.48 L86.346,13.32 Z M97.11,27.902 L97.11,40 L93.43,40 L93.43,7.8 L99.778,7.8 C103.78,7.8 105.758,9.778 105.758,13.78 L105.758,21.922 C105.758,25.924 103.78,27.902 99.778,27.902 L97.11,27.902 Z M102.078,13.596 C102.078,11.94 101.296,11.158 99.64,11.158 L97.11,11.158 L97.11,24.544 L99.64,24.544 C101.296,24.544 102.078,23.762 102.078,22.106 L102.078,13.596 Z" id="SHOP" fill="#000000"></path>
        </g>
    </g>
</svg>