<?xml version="1.0" encoding="UTF-8" standalone="no"?>
<svg width="149px" height="61px" viewBox="0 0 149 61" version="1.1" xmlns="http://www.w3.org/2000/svg" xmlns:xlink="http://www.w3.org/1999/xlink">
    <!-- Generator: Sketch 44.1 (41455) - http://www.bohemiancoding.com/sketch -->
    <title>Videos</title>
    <desc>Created with Sketch.</desc>
    <defs></defs>
    <g id="Menu" stroke="none" stroke-width="1" fill="none" fill-rule="evenodd">
        <g id="Videos">
            <rect id="Rectangle" stroke="#000000" stroke-width="3" x="1.5" y="9.29998779" width="55" height="29.2000008"></rect>
            <rect id="Rectangle" stroke="#000000" stroke-width="3" x="63.5" y="9.02999878" width="84" height="29.7400017"></rect>
            <polygon id="Rectangle-2" fill="#FFFFFF" points="35.0682492 0 110 0 110 61 39.9262002 59.8581759"></polygon>
            <path d="M40.352,32.41 L36.902,7.8 L33.176,7.8 L38.282,40.092 L42.33,40.092 L47.436,7.8 L43.802,7.8 L40.352,32.41 Z M53.692,7.8 L50.012,7.8 L50.012,40 L53.692,40 L53.692,7.8 Z M57.234,40 L57.234,7.8 L63.306,7.8 C68.136,7.8 70.436,10.1 70.436,14.93 L70.436,32.87 C70.436,37.7 68.136,40 63.306,40 L57.234,40 Z M60.914,11.158 L60.914,36.642 L63.122,36.642 C65.606,36.642 66.756,35.4 66.756,32.916 L66.756,14.884 C66.756,12.4 65.606,11.158 63.122,11.158 L60.914,11.158 Z M73.84,7.8 L73.84,40 L84.052,40 L84.052,36.596 L77.52,36.596 L77.52,25.234 L83.73,25.234 L83.73,21.876 L77.52,21.876 L77.52,11.204 L83.96,11.204 L83.96,7.8 L73.84,7.8 Z M100.336,34.296 C100.336,38.298 98.358,40.276 94.356,40.276 L92.976,40.276 C88.974,40.276 86.996,38.298 86.996,34.296 L86.996,13.504 C86.996,9.502 88.974,7.524 92.976,7.524 L94.356,7.524 C98.358,7.524 100.336,9.502 100.336,13.504 L100.336,34.296 Z M96.656,13.32 C96.656,11.664 95.874,10.882 94.218,10.882 L93.114,10.882 C91.458,10.882 90.676,11.664 90.676,13.32 L90.676,34.48 C90.676,36.136 91.458,36.918 93.114,36.918 L94.218,36.918 C95.874,36.918 96.656,36.136 96.656,34.48 L96.656,13.32 Z M113.4,23.624 L108.938,20.404 C107.88,19.622 107.282,18.932 107.282,17.322 L107.282,13.274 C107.282,11.618 108.064,10.836 109.72,10.836 L110.364,10.836 C112.02,10.836 112.802,11.618 112.802,13.274 L112.802,19.208 L116.39,19.208 L116.39,13.412 C116.39,9.502 114.458,7.524 110.502,7.524 L109.582,7.524 C105.58,7.524 103.602,9.502 103.602,13.504 L103.602,17.368 C103.602,19.99 104.292,21.646 106.684,23.348 L111.192,26.614 C112.25,27.396 112.802,28.086 112.802,29.696 L112.802,34.526 C112.802,36.182 112.02,36.964 110.364,36.964 L109.628,36.964 C107.972,36.964 107.19,36.182 107.19,34.526 L107.19,27.626 L103.602,27.626 L103.602,34.388 C103.602,38.298 105.534,40.276 109.49,40.276 L110.502,40.276 C114.504,40.276 116.482,38.298 116.482,34.296 L116.482,29.604 C116.482,26.844 115.746,25.326 113.4,23.624 Z" id="VIDEOS" fill="#000000"></path>
        </g>
    </g>
</svg>