<?xml version="1.0" encoding="UTF-8" standalone="no"?>
<svg width="148px" height="167px" viewBox="0 0 148 167" version="1.1" xmlns="http://www.w3.org/2000/svg" xmlns:xlink="http://www.w3.org/1999/xlink">
    <!-- Generator: Sketch 39.1 (31720) - http://www.bohemiancoding.com/sketch -->
    <title>Videos</title>
    <desc>Created with Sketch.</desc>
    <defs>
        <rect id="path-1" x="0" y="9" width="148" height="148.210131"></rect>
        <mask id="mask-2" maskContentUnits="userSpaceOnUse" maskUnits="objectBoundingBox" x="0" y="0" width="148" height="148.210131" fill="white">
            <use xlink:href="#path-1"></use>
        </mask>
    </defs>
    <g id="CitB-Web-Pages" stroke="none" stroke-width="1" fill="none" fill-rule="evenodd">
        <g id="Desktop-HD" transform="translate(-756.000000, -1120.000000)">
            <g id="Group" transform="translate(156.000000, 1120.000000)">
                <g id="Videos" transform="translate(600.000000, 0.000000)">
                    <g id="Square">
                        <g id="Group-2">
                            <use id="Rectangle-1" stroke="#000000" mask="url(#mask-2)" stroke-width="20" xlink:href="#path-1"></use>
                            <rect id="Rectangle-2" fill="#FFFFFF" x="50" y="0" width="48.8986784" height="32.6454034"></rect>
                            <rect id="Rectangle-2-Copy" fill="#FFFFFF" x="50" y="134" width="48.8986784" height="32.6454034"></rect>
                        </g>
                    </g>
                    <path d="M38.958,88.41 L35.508,63.8 L31.782,63.8 L36.888,96.092 L40.936,96.092 L46.042,63.8 L42.408,63.8 L38.958,88.41 Z M52.298,63.8 L48.618,63.8 L48.618,96 L52.298,96 L52.298,63.8 Z M55.84,96 L61.912,96 C66.742,96 69.042,93.7 69.042,88.87 L69.042,70.93 C69.042,66.1 66.742,63.8 61.912,63.8 L55.84,63.8 L55.84,96 Z M59.52,67.158 L61.728,67.158 C64.212,67.158 65.362,68.4 65.362,70.884 L65.362,88.916 C65.362,91.4 64.212,92.642 61.728,92.642 L59.52,92.642 L59.52,67.158 Z M72.446,63.8 L72.446,96 L82.658,96 L82.658,92.596 L76.126,92.596 L76.126,81.234 L82.336,81.234 L82.336,77.876 L76.126,77.876 L76.126,67.204 L82.566,67.204 L82.566,63.8 L72.446,63.8 Z M98.942,90.296 L98.942,69.504 C98.942,65.502 96.964,63.524 92.962,63.524 L91.582,63.524 C87.58,63.524 85.602,65.502 85.602,69.504 L85.602,90.296 C85.602,94.298 87.58,96.276 91.582,96.276 L92.962,96.276 C96.964,96.276 98.942,94.298 98.942,90.296 L98.942,90.296 Z M95.262,69.32 L95.262,90.48 C95.262,92.136 94.48,92.918 92.824,92.918 L91.72,92.918 C90.064,92.918 89.282,92.136 89.282,90.48 L89.282,69.32 C89.282,67.664 90.064,66.882 91.72,66.882 L92.824,66.882 C94.48,66.882 95.262,67.664 95.262,69.32 L95.262,69.32 Z M112.006,79.624 L107.544,76.404 C106.486,75.622 105.888,74.932 105.888,73.322 L105.888,69.274 C105.888,67.618 106.67,66.836 108.326,66.836 L108.97,66.836 C110.626,66.836 111.408,67.618 111.408,69.274 L111.408,75.208 L114.996,75.208 L114.996,69.412 C114.996,65.502 113.064,63.524 109.108,63.524 L108.188,63.524 C104.186,63.524 102.208,65.502 102.208,69.504 L102.208,73.368 C102.208,75.99 102.898,77.646 105.29,79.348 L109.798,82.614 C110.856,83.396 111.408,84.086 111.408,85.696 L111.408,90.526 C111.408,92.182 110.626,92.964 108.97,92.964 L108.234,92.964 C106.578,92.964 105.796,92.182 105.796,90.526 L105.796,83.626 L102.208,83.626 L102.208,90.388 C102.208,94.298 104.14,96.276 108.096,96.276 L109.108,96.276 C113.11,96.276 115.088,94.298 115.088,90.296 L115.088,85.604 C115.088,82.844 114.352,81.326 112.006,79.624 L112.006,79.624 Z" id="VIDEOS" fill="#000000"></path>
                </g>
            </g>
        </g>
    </g>
</svg>